<svg xmlns="http://www.w3.org/2000/svg" viewBox="0 0 581.05 281.94"><defs><style>.cls-1,.cls-2,.cls-5{fill:none;stroke-miterlimit:10;}.cls-1,.cls-2{stroke:#4d4d4d;}.cls-1{stroke-width:2px;}.cls-3,.cls-6{font-size:26.94px;}.cls-3{fill:#1a1a1a;font-family:HelveticaNeue-Bold, Helvetica Neue;font-weight:700;}.cls-4{letter-spacing:-0.11em;}.cls-5{stroke:#ccc;}.cls-6{font-family:HelveticaNeue, Helvetica Neue;}.cls-7{letter-spacing:-0.06em;}.cls-8{letter-spacing:-0.02em;}.cls-9{letter-spacing:-0.09em;}.cls-10{fill:#6c87a6;opacity:0.38;}</style></defs><title>Asset 9</title><g id="Layer_2" data-name="Layer 2"><g id="Layer_1-2" data-name="Layer 1"><rect class="cls-1" x="1" y="1" width="579.05" height="276.87"/><line class="cls-2" x1="1.35" y1="40.25" x2="580.05" y2="40.03"/><text class="cls-3" transform="translate(13.92 31.35)">Model</text><text class="cls-3" transform="translate(394.45 31.35)"><tspan class="cls-4">T</tspan><tspan x="13.47" y="0">est RMSE</tspan></text><line class="cls-5" x1="1.35" y1="79.85" x2="580.05" y2="79.85"/><line class="cls-5" x1="1.35" y1="119.46" x2="579.56" y2="119.46"/><line class="cls-5" x1="1.35" y1="159.06" x2="579.56" y2="159.06"/><line class="cls-5" x1="1.35" y1="198.67" x2="579.56" y2="198.67"/><line class="cls-5" x1="1.35" y1="238.27" x2="579.56" y2="238.27"/><text class="cls-6" transform="translate(13.68 66.54)">Review text-based</text><text></text><text class="cls-6" transform="translate(13.68 106.95)">Ratings-based</text><text class="cls-6" transform="translate(13.68 147.37)">Simple <tspan class="cls-7" x="90.34" y="0">W</tspan><tspan x="113.75" y="0">eighted </tspan><tspan class="cls-8" x="211.07" y="0">A</tspan><tspan x="228.04" y="0">verage</tspan></text><text class="cls-6" transform="translate(13.68 265.78)">Baseline - <tspan class="cls-9" x="127.73" y="0">T</tspan><tspan x="140.72" y="0">rain set average</tspan></text><text class="cls-6" transform="translate(13.68 189.2)">Hybrid All of Above</text><text class="cls-6" transform="translate(13.68 229.61)">Matrix Factorization</text><text class="cls-6" transform="translate(441.88 69.06)">0.74</text><text class="cls-6" transform="translate(443.3 108.91)">0.75</text><text class="cls-6" transform="translate(441.88 148.76)">0.75</text><text class="cls-6" transform="translate(441.88 267.61)">0.89</text><text class="cls-6" transform="translate(441.88 189.45)">0.73</text><text class="cls-6" transform="translate(441.88 229.3)">0.76</text><line class="cls-1" x1="363.68" y1="2.42" x2="363.68" y2="276.46"/><rect class="cls-10" x="1" y="158.63" width="579" height="40"/></g></g></svg>