<svg xmlns="http://www.w3.org/2000/svg" xmlns:xlink="http://www.w3.org/1999/xlink" viewBox="0 0 880.86 534.01"><defs><style>.cls-1,.cls-7{fill:none;}.cls-2{clip-path:url(#clip-path);}.cls-3{font-size:34px;fill:#1a1a1a;font-family:HelveticaNeue-Bold, Helvetica Neue;font-weight:700;}.cls-4{letter-spacing:-0.02em;}.cls-5{font-size:30px;fill:#666;}.cls-5,.cls-8{font-family:HelveticaNeue, Helvetica Neue;}.cls-6{letter-spacing:-0.02em;}.cls-7{stroke:#426696;stroke-miterlimit:10;stroke-width:4px;}.cls-8{font-size:24px;}.cls-9{letter-spacing:0.67em;}.cls-10{letter-spacing:1.22em;}.cls-11{letter-spacing:0.39em;}.cls-12{letter-spacing:-0.06em;}.cls-13{clip-path:url(#clip-path-2);}.cls-14{clip-path:url(#clip-path-3);}</style><clipPath id="clip-path"><rect class="cls-1" x="262.86" y="100.86" width="394" height="268.46"/></clipPath><clipPath id="clip-path-2"><rect class="cls-1" x="529.86" y="100.86" width="127" height="92.36"/></clipPath><clipPath id="clip-path-3"><rect class="cls-1" x="88.25" y="100.86" width="568.61" height="387.44"/></clipPath><image id="image" width="1003" height="595" xlink:href="../../../Downloads/recs.png"/></defs><title>Asset 14</title><g id="Layer_2" data-name="Layer 2"><g id="Layer_1-2" data-name="Layer 1"><g class="cls-2"><use transform="translate(201.71 62.37) scale(0.51 0.57)" xlink:href="#image"/></g><text class="cls-3" transform="translate(179.45 29.14)">The hybrid model takes the intersection <tspan x="0" y="42">of user and item-based </tspan><tspan class="cls-4" x="385.25" y="42">r</tspan><tspan x="397.86" y="42">ecommendations</tspan></text><text class="cls-5" transform="translate(210.01 294.98) rotate(-90)">F<tspan class="cls-6" x="17.22" y="0">r</tspan><tspan x="26.67" y="0">equency</tspan></text><line class="cls-7" x1="185.86" y1="90.82" x2="860.86" y2="90.82"/><text class="cls-5" transform="translate(319.54 429.38)"># of <tspan class="cls-6" x="59.46" y="0">r</tspan><tspan x="68.91" y="0">ecommendations</tspan></text><text class="cls-8" transform="translate(242.06 377.8)">0</text><text class="cls-8" transform="translate(230.52 277.39)">15</text><text class="cls-8" transform="translate(232.38 176.8)">30</text><text class="cls-8" transform="translate(262.74 395.19)">0<tspan class="cls-9" x="13.34" y="0">	</tspan><tspan class="cls-10" x="36" y="0" xml:space="preserve">		</tspan><tspan x="108" y="0" xml:space="preserve">   </tspan><tspan class="cls-11" x="128.02" y="0">	</tspan><tspan x="144" y="0" xml:space="preserve">    300</tspan><tspan class="cls-12" x="210.72" y="0">	</tspan><tspan class="cls-10" x="216" y="0" xml:space="preserve">			</tspan><tspan x="324" y="0" xml:space="preserve">    600</tspan></text><rect class="cls-1" x="412.86" y="113.86" width="418" height="255"/><g class="cls-13"><g class="cls-14"><use transform="translate(0 45.31) scale(0.73 0.82)" xlink:href="#image"/></g></g></g></g></svg>