<svg xmlns="http://www.w3.org/2000/svg" viewBox="0 0 653.87 305.33"><defs><style>.cls-1,.cls-9{fill:#fff;}.cls-2{font-size:30px;fill:#1a1a1a;}.cls-10,.cls-2,.cls-8,.cls-9{font-family:HelveticaNeue, Helvetica Neue;}.cls-3{fill:#7f9ab5;}.cls-4{fill:#963d40;}.cls-5{fill:#222;opacity:0.94;}.cls-6{fill:#dfdfdf;}.cls-11,.cls-7{fill:#f6b733;}.cls-8,.cls-9{font-size:24px;}.cls-10{font-size:15.52px;}.cls-11{stroke:#af6822;stroke-miterlimit:10;stroke-width:2px;}</style></defs><title>Asset 11</title><g id="Layer_2" data-name="Layer 2"><g id="Layer_1-2" data-name="Layer 1"><rect class="cls-1" x="0.33" width="279" height="46"/><text class="cls-2" transform="translate(0 27.26)">Netflix Star Ratings</text><text class="cls-2" transform="translate(311 27.26)">Kindle Star Ratings</text><path class="cls-3" d="M127.44,193l-110,7.69A110.28,110.28,0,0,1,119.75,83c2.43-.17,5.26-.27,7.69-.27Z"/><path class="cls-4" d="M127.44,193l60.07,92.49A110.28,110.28,0,0,1,34.95,253.1a106,106,0,0,1-17.52-52.37Z"/><path class="cls-5" d="M127.44,193l79.33-76.61A110.28,110.28,0,0,1,204,272.37a106.59,106.59,0,0,1-16.54,13.16Z"/><path class="cls-6" d="M127.44,193,154.12,86c21.28,5.3,37.42,14.63,52.65,30.4Z"/><path class="cls-7" d="M127.44,193V82.75A101.84,101.84,0,0,1,154.12,86Z"/><text class="cls-8" transform="translate(125.6 74.6)">4%</text><text class="cls-8" transform="translate(183.6 86.6)">9%</text><text class="cls-8" transform="translate(95.6 262.6)">33%</text><text class="cls-9" transform="translate(166.33 192.6)">28%</text><text class="cls-8" transform="translate(54.6 158.6)">26%</text><path class="cls-3" d="M432.44,195l60.07,92.49a110.28,110.28,0,1,1-120.13-185,107.36,107.36,0,0,1,60.07-17.79Z"/><path class="cls-4" d="M432.44,195l89.22-64.82a110.28,110.28,0,0,1-24.4,154c-2,1.43-2.72,1.94-4.76,3.27Z"/><path class="cls-6" d="M432.44,195,466.52,90.15c23.17,7.53,40.82,20.35,55.14,40.06Z"/><path class="cls-6" d="M432.44,195,445.88,85.57a106.59,106.59,0,0,1,20.64,4.58Z"/><path class="cls-7" d="M432.44,195V84.75a101.7,101.7,0,0,1,13.44.82Z"/><text class="cls-8" transform="translate(472.6 208.6)">26%</text><text class="cls-8" transform="translate(342.6 204.6)">59%</text><text class="cls-8" transform="translate(460.6 136.6)">10%</text><text class="cls-8" transform="translate(452.6 80.6)">3%</text><text class="cls-8" transform="translate(403.6 69.6)">2%</text><rect class="cls-7" x="589.71" y="236.77" width="18.11" height="18.11" transform="translate(352.94 844.59) rotate(-90)"/><rect class="cls-6" x="589.71" y="212.78" width="18.11" height="18.11" transform="translate(376.93 820.6) rotate(-90)"/><rect class="cls-3" x="589.71" y="140.8" width="18.11" height="18.11" transform="translate(448.91 748.62) rotate(-90)"/><rect class="cls-5" x="589.71" y="188.79" width="18.11" height="18.11" transform="translate(400.93 796.61) rotate(-90)"/><rect class="cls-4" x="589.71" y="164.79" width="18.11" height="18.11" transform="translate(424.92 772.61) rotate(-90)"/><text class="cls-10" transform="translate(614.59 203.08)">3</text><text class="cls-10" transform="translate(614.59 227.49)">2</text><text class="cls-10" transform="translate(614.59 178.67)">4</text><text class="cls-10" transform="translate(614.59 154.25)">5</text><text class="cls-10" transform="translate(614.59 251.91)">1</text><polygon class="cls-11" points="634.12 143.05 636.15 147.18 640.71 147.84 637.41 151.06 638.19 155.59 634.12 153.45 630.04 155.59 630.82 151.06 627.52 147.84 632.08 147.18 634.12 143.05"/><polygon class="cls-11" points="634.12 167.48 636.15 171.6 640.71 172.26 637.41 175.48 638.19 180.01 634.12 177.87 630.04 180.01 630.82 175.48 627.52 172.26 632.08 171.6 634.12 167.48"/><polygon class="cls-11" points="634.12 191.9 636.15 196.03 640.71 196.69 637.41 199.9 638.19 204.44 634.12 202.29 630.04 204.44 630.82 199.9 627.52 196.69 632.08 196.03 634.12 191.9"/><polygon class="cls-11" points="634.12 216.32 636.15 220.45 640.71 221.11 637.41 224.32 638.19 228.86 634.12 226.72 630.04 228.86 630.82 224.32 627.52 221.11 632.08 220.45 634.12 216.32"/><polygon class="cls-11" points="634.12 240.74 636.15 244.87 640.71 245.53 637.41 248.74 638.19 253.28 634.12 251.14 630.04 253.28 630.82 248.74 627.52 245.53 632.08 244.87 634.12 240.74"/></g></g></svg>