<svg xmlns="http://www.w3.org/2000/svg" viewBox="0 0 367.29 193.93"><defs><style>.cls-1{font-size:27.51px;font-family:HelveticaNeue, Helvetica Neue;}.cls-2,.cls-4{fill:#4d749d;}.cls-3{letter-spacing:-0.02em;}.cls-4{font-size:19.59px;letter-spacing:1.83em;}.cls-5{fill:#9e2a24;}.cls-6{fill:none;stroke:#949494;stroke-width:4px;}.cls-6,.cls-7,.cls-8{stroke-miterlimit:10;}.cls-7{fill:#f6b733;}.cls-7,.cls-8{stroke:#af6822;stroke-width:2px;}.cls-8{fill:#fff;}</style></defs><title>Asset 3</title><g id="Layer_2" data-name="Layer 2"><g id="Layer_1-2" data-name="Layer 1"><text class="cls-1" transform="translate(0 23.58)"><tspan class="cls-2">The Missing<tspan x="0" y="33.02" xml:space="preserve">   Ca</tspan><tspan class="cls-3" x="57.59" y="33.02">r</tspan><tspan x="66.25" y="33.02">oline Eriksson</tspan></tspan><tspan class="cls-4"><tspan x="0" y="56.52" xml:space="preserve">					</tspan></tspan><tspan x="0" y="122.55">Kindle Edition</tspan><tspan class="cls-5"><tspan x="0" y="155.57">$4.99</tspan></tspan></text><line class="cls-6" x1="12.79" y1="48.14" x2="3.82" y2="39.17"/><line class="cls-6" x1="12.79" y1="45.83" x2="3.82" y2="54.8"/><polygon class="cls-7" points="17.91 79.07 22.02 87.39 31.2 88.73 24.56 95.2 26.13 104.35 17.91 100.03 9.7 104.35 11.27 95.2 4.63 88.73 13.81 87.39 17.91 79.07"/><polygon class="cls-7" points="58.04 79.07 62.14 87.39 71.33 88.73 64.68 95.2 66.25 104.35 58.04 100.03 49.83 104.35 51.39 95.2 44.75 88.73 53.93 87.39 58.04 79.07"/><polygon class="cls-7" points="98.16 79.07 102.27 87.39 111.45 88.73 104.81 95.2 106.37 104.35 98.16 100.03 89.95 104.35 91.52 95.2 84.87 88.73 94.06 87.39 98.16 79.07"/><polygon class="cls-7" points="138.29 79.07 142.39 87.39 151.57 88.73 144.93 95.2 146.5 104.35 138.29 100.03 130.07 104.35 131.64 95.2 125 88.73 134.18 87.39 138.29 79.07"/><polygon class="cls-8" points="178.41 77.92 182.52 86.25 191.7 87.58 185.05 94.06 186.62 103.2 178.41 98.88 170.2 103.2 171.76 94.06 165.12 87.58 174.3 86.25 178.41 77.92"/></g></g></svg>