<svg xmlns="http://www.w3.org/2000/svg" xmlns:xlink="http://www.w3.org/1999/xlink" viewBox="0 0 637.11 444.82"><defs><style>.cls-1,.cls-7{fill:none;}.cls-2{font-size:34px;fill:#1a1a1a;font-family:HelveticaNeue-Bold, Helvetica Neue;font-weight:700;}.cls-3{letter-spacing:-0.02em;}.cls-4{clip-path:url(#clip-path);}.cls-5{font-size:38px;fill:#666;font-family:HelveticaNeue, Helvetica Neue;}.cls-6{letter-spacing:-0.02em;}.cls-7{stroke:#426696;stroke-width:4px;}.cls-7,.cls-8{stroke-miterlimit:10;}.cls-8{fill:#f6b733;stroke:#af6822;stroke-width:2px;}</style><clipPath id="clip-path"><rect class="cls-1" x="60.42" y="91.77" width="555.19" height="312"/></clipPath></defs><title>Asset 12</title><g id="Layer_2" data-name="Layer 2"><g id="Layer_1-2" data-name="Layer 1"><text class="cls-2" transform="translate(0 29.14)">Reviews a<tspan class="cls-3" x="164.93" y="0">r</tspan><tspan x="177.55" y="0">e mostly 4-5 stars </tspan><tspan x="0" y="42">and written f</tspan><tspan class="cls-3" x="203.96" y="42">r</tspan><tspan x="216.58" y="42">om 2013-2014 </tspan></text><g class="cls-4"><image width="1046" height="602" transform="translate(23.67 91.77) scale(0.59)" xlink:href="../../../Desktop/posters/poster_viz_4.png"/></g><text class="cls-5" transform="translate(33.28 336.98) rotate(-90)"># of <tspan class="cls-6" x="75.32" y="0">r</tspan><tspan x="87.29" y="0">eviews</tspan></text><line class="cls-7" x1="3.42" y1="91.77" x2="531.42" y2="91.77"/><polygon class="cls-8" points="624.82 102.82 627.67 108.58 634.03 109.51 629.42 114 630.51 120.33 624.82 117.34 619.13 120.33 620.22 114 615.61 109.51 621.98 108.58 624.82 102.82"/><polygon class="cls-8" points="624.82 137.43 627.67 143.19 634.03 144.12 629.42 148.6 630.51 154.94 624.82 151.95 619.13 154.94 620.22 148.6 615.61 144.12 621.98 143.19 624.82 137.43"/><polygon class="cls-8" points="624.82 172.04 627.67 177.8 634.03 178.72 629.42 183.21 630.51 189.55 624.82 186.56 619.13 189.55 620.22 183.21 615.61 178.72 621.98 177.8 624.82 172.04"/><polygon class="cls-8" points="624.82 206.65 627.67 212.41 634.03 213.33 629.42 217.82 630.51 224.16 624.82 221.17 619.13 224.16 620.22 217.82 615.61 213.33 621.98 212.41 624.82 206.65"/><polygon class="cls-8" points="624.82 241.25 627.67 247.02 634.03 247.94 629.42 252.43 630.51 258.77 624.82 255.77 619.13 258.77 620.22 252.43 615.61 247.94 621.98 247.02 624.82 241.25"/></g></g></svg>