<svg xmlns="http://www.w3.org/2000/svg" xmlns:xlink="http://www.w3.org/1999/xlink" viewBox="0 0 684.52 509.93"><defs><style>.cls-1,.cls-17,.cls-2,.cls-5{fill:none;}.cls-2{stroke:#ccc;}.cls-17,.cls-2,.cls-5{stroke-miterlimit:10;}.cls-3{clip-path:url(#clip-path);}.cls-4{fill:#fff;opacity:0;}.cls-5{stroke:#333;opacity:0.75;}.cls-17,.cls-5{stroke-width:4px;}.cls-6{fill:#426696;}.cls-10,.cls-7{font-size:38px;fill:#666;}.cls-7{font-family:HelveticaNeue-Bold, Helvetica Neue;font-weight:700;}.cls-8{letter-spacing:-0.09em;}.cls-9{letter-spacing:-0.02em;}.cls-10,.cls-12{font-family:HelveticaNeue, Helvetica Neue;}.cls-11{letter-spacing:-0.06em;}.cls-12{font-size:24px;}.cls-13{letter-spacing:0.67em;}.cls-14{letter-spacing:1.22em;}.cls-15{letter-spacing:0.39em;}.cls-16{letter-spacing:0.5em;}.cls-17{stroke:#426696;}</style><clipPath id="clip-path"><rect class="cls-1" x="95.52" y="107.43" width="401" height="314"/></clipPath></defs><title>Asset 13</title><g id="Layer_2" data-name="Layer 2"><g id="Layer_1-2" data-name="Layer 1"><line class="cls-2" x1="125.52" y1="319.93" x2="492.52" y2="319.93"/><line class="cls-2" x1="121.52" y1="216.6" x2="496.52" y2="216.6"/><g class="cls-3"><rect class="cls-4" x="95.52" y="107.43" width="401" height="314"/></g><line class="cls-5" x1="122.52" y1="114.93" x2="122.52" y2="409.43"/><line class="cls-5" x1="122.02" y1="408.93" x2="488.02" y2="408.93"/><path class="cls-6" d="M124.07,295.32c20.19,23.17,40.76,46.74,66.72,63.67,24.4,15.91,52.7,24.71,81.92,20.9,61.07-8,103.23-57.54,136.73-104.77q33.15-46.74,61.71-96.5a1.5,1.5,0,0,0-2.59-1.51q-24,41.81-51.32,81.62c-17,24.7-34.51,49.4-55.9,70.52-21,20.75-46.27,37.75-75.19,45-29.44,7.42-59,2.24-85.23-12.63-29.76-16.86-52.53-43-74.73-68.45-1.27-1.46-3.39.67-2.12,2.12Z"/><path class="cls-6" d="M485.54,145.65q-7.51,15.3-15.75,30.21c-.93,1.69,1.66,3.21,2.59,1.51q8.24-14.92,15.75-30.21c.85-1.73-1.74-3.25-2.59-1.51Z"/><text class="cls-7" transform="translate(8.19 32.57)"><tspan class="cls-8">T</tspan><tspan x="19.72" y="0">uning the Simple </tspan><tspan class="cls-9" x="333.48" y="0">A</tspan><tspan x="358.83" y="0">verage</tspan><tspan x="0" y="45.6">Model</tspan></text><text class="cls-10" transform="translate(32.57 287.5) rotate(-90)">RMSE</text><text class="cls-10" transform="translate(208.53 491.65)">Item <tspan class="cls-11" x="85.2" y="0">W</tspan><tspan x="118.22" y="0">eight</tspan></text><text></text><text class="cls-12" transform="translate(56.03 413.37)">0.80</text><text class="cls-12" transform="translate(62.03 324.54)">0.85</text><text class="cls-12" transform="translate(62.03 137.37)">0.95</text><text class="cls-12" transform="translate(62.03 224.71)">0.90</text><text class="cls-12" transform="translate(116.4 440.76)">0<tspan class="cls-13" x="13.34" y="0">	</tspan><tspan class="cls-14" x="36" y="0" xml:space="preserve">		</tspan><tspan x="108" y="0" xml:space="preserve">   </tspan><tspan class="cls-15" x="128.02" y="0">	</tspan><tspan x="144" y="0" xml:space="preserve">   0.5</tspan><tspan class="cls-16" x="197.37" y="0">	</tspan><tspan class="cls-14" x="216" y="0" xml:space="preserve">			</tspan><tspan x="324" y="0" xml:space="preserve">  1.0</tspan></text><line class="cls-17" x1="7.52" y1="93.43" x2="493.52" y2="93.43"/><line class="cls-2" x1="122.52" y1="120.43" x2="496.52" y2="120.43"/></g></g></svg>