<svg xmlns="http://www.w3.org/2000/svg" viewBox="0 0 582.89 342.26"><defs><style>.cls-1{font-size:34px;}.cls-1,.cls-5{fill:#1a1a1a;font-family:HelveticaNeue-Bold, Helvetica Neue;font-weight:700;}.cls-2{letter-spacing:-0.02em;}.cls-3,.cls-4,.cls-7{fill:none;}.cls-3,.cls-4{stroke:#4d4d4d;}.cls-12,.cls-13,.cls-3,.cls-4,.cls-7{stroke-miterlimit:10;}.cls-12,.cls-13,.cls-3{stroke-width:2px;}.cls-5,.cls-8{font-size:26.94px;}.cls-6{letter-spacing:-0.11em;}.cls-7{stroke:#ccc;}.cls-8{font-family:HelveticaNeue, Helvetica Neue;}.cls-9{letter-spacing:-0.06em;}.cls-10{letter-spacing:-0.02em;}.cls-11{letter-spacing:-0.09em;}.cls-12{fill:#f6b733;}.cls-12,.cls-13{stroke:#af6822;}.cls-13{fill:#fff;}.cls-14{fill:#6c87a6;opacity:0.38;}</style></defs><title>Asset 10</title><g id="Layer_2" data-name="Layer 2"><g id="Layer_1-2" data-name="Layer 1"><text class="cls-1" transform="translate(0 29.14)">P<tspan class="cls-2" x="22.68" y="0">r</tspan><tspan x="35.29" y="0">edicting Ratings</tspan></text><rect class="cls-3" x="2.84" y="61.32" width="579.05" height="276.87"/><line class="cls-4" x1="3.2" y1="100.57" x2="581.89" y2="100.35"/><text class="cls-5" transform="translate(15.76 91.68)">Model</text><text class="cls-5" transform="translate(396.29 91.68)"><tspan class="cls-6">T</tspan><tspan x="13.47" y="0">est RMSE</tspan></text><line class="cls-7" x1="3.2" y1="140.18" x2="581.89" y2="140.18"/><line class="cls-7" x1="3.2" y1="179.78" x2="581.4" y2="179.78"/><line class="cls-7" x1="3.2" y1="219.39" x2="581.4" y2="219.39"/><line class="cls-7" x1="3.2" y1="258.99" x2="581.4" y2="258.99"/><line class="cls-7" x1="3.2" y1="298.59" x2="581.4" y2="298.59"/><text class="cls-8" transform="translate(15.52 126.87)">Review text-based</text><text></text><text class="cls-8" transform="translate(15.52 167.28)">Ratings-based</text><text class="cls-8" transform="translate(15.52 207.69)">Simple <tspan class="cls-9" x="90.34" y="0">W</tspan><tspan x="113.75" y="0">eighted </tspan><tspan class="cls-10" x="211.07" y="0">A</tspan><tspan x="228.04" y="0">verage</tspan></text><text class="cls-8" transform="translate(15.52 326.11)">Baseline - <tspan class="cls-11" x="127.73" y="0">T</tspan><tspan x="140.72" y="0">rain set average</tspan></text><text class="cls-8" transform="translate(15.52 249.52)">Hybrid All of Above</text><text class="cls-8" transform="translate(15.52 289.94)">Matrix Factorization</text><text class="cls-8" transform="translate(443.72 129.39)">0.74</text><text class="cls-8" transform="translate(445.14 169.24)">0.75</text><text class="cls-8" transform="translate(443.72 209.08)">0.75</text><text class="cls-8" transform="translate(443.72 327.93)">0.89</text><text class="cls-8" transform="translate(443.72 249.78)">0.73</text><text class="cls-8" transform="translate(443.72 289.63)">0.76</text><line class="cls-3" x1="365.52" y1="62.74" x2="365.52" y2="336.78"/><polygon class="cls-12" points="403.37 8.76 406.52 15.14 413.56 16.17 408.47 21.14 409.67 28.15 403.37 24.84 397.07 28.15 398.27 21.14 393.18 16.17 400.22 15.14 403.37 8.76"/><polygon class="cls-12" points="434.15 8.76 437.3 15.14 444.34 16.17 439.24 21.14 440.45 28.15 434.15 24.84 427.85 28.15 429.05 21.14 423.95 16.17 431 15.14 434.15 8.76"/><polygon class="cls-12" points="464.93 8.76 468.07 15.14 475.12 16.17 470.02 21.14 471.23 28.15 464.93 24.84 458.63 28.15 459.83 21.14 454.73 16.17 461.77 15.14 464.93 8.76"/><polygon class="cls-12" points="495.7 8.76 498.85 15.14 505.9 16.17 500.8 21.14 502 28.15 495.7 24.84 489.4 28.15 490.61 21.14 485.51 16.17 492.55 15.14 495.7 8.76"/><polygon class="cls-13" points="526.48 7.88 529.63 14.26 536.67 15.29 531.58 20.26 532.78 27.27 526.48 23.96 520.18 27.27 521.38 20.26 516.29 15.29 523.33 14.26 526.48 7.88"/><rect class="cls-14" x="2.84" y="218.96" width="579" height="40"/></g></g></svg>