<svg xmlns="http://www.w3.org/2000/svg" viewBox="0 0 888.01 827.29"><defs><style>.cls-1{fill:#ffae1f;}.cls-2{font-size:40px;font-family:MyriadPro-Regular, Myriad Pro;}.cls-3{letter-spacing:-0.02em;}.cls-4{letter-spacing:0em;}.cls-5{letter-spacing:-0.01em;}.cls-6{letter-spacing:-0.01em;}.cls-7{letter-spacing:0em;}.cls-8{letter-spacing:0.03em;}.cls-9{letter-spacing:0.01em;}.cls-10{letter-spacing:-0.01em;}.cls-11{letter-spacing:0em;}.cls-12{letter-spacing:-0.01em;}.cls-13{letter-spacing:-0.08em;}.cls-14{letter-spacing:0.04em;}.cls-15{letter-spacing:0.01em;}.cls-16{letter-spacing:-0.02em;}.cls-17{letter-spacing:-0.09em;}.cls-18{letter-spacing:-0.01em;}.cls-19{letter-spacing:0em;}.cls-20{fill:none;stroke:#333;stroke-miterlimit:10;stroke-width:2px;}</style></defs><title>tree</title><g id="Layer_2" data-name="Layer 2"><g id="Layer_1-2" data-name="Layer 1"><circle class="cls-1" cx="423.01" cy="148.59" r="58.03"/><circle class="cls-1" cx="212.89" cy="525.78" r="58.03"/><text class="cls-2" transform="translate(326.18 33.48)"><tspan class="cls-3">P</tspan><tspan class="cls-4" x="20.64" y="0">r</tspan><tspan x="33.88" y="0">i</tspan><tspan class="cls-5" x="43.24" y="0">c</tspan><tspan x="60.92" y="0">e&lt;$10</tspan></text><text class="cls-2" transform="translate(534.18 430.48)"><tspan class="cls-6">C</tspan><tspan class="cls-7" x="22.92" y="0">a</tspan><tspan class="cls-5" x="42.04" y="0">t</tspan><tspan x="55.04" y="0">ego</tspan><tspan class="cls-8" x="119.4" y="0">r</tspan><tspan x="133.48" y="0">y=</tspan><tspan class="cls-9" x="176.16" y="0">M</tspan><tspan class="cls-10" x="208.6" y="0">y</tspan><tspan x="227.2" y="0">s</tspan><tspan class="cls-5" x="243.04" y="0">t</tspan><tspan x="256.04" y="0">e</tspan><tspan class="cls-8" x="276.08" y="0">r</tspan><tspan x="290.16" y="0">y </tspan></text><text class="cls-2" transform="translate(13.18 430.48)"><tspan class="cls-11">A</tspan><tspan x="24.36" y="0">lso vie</tspan><tspan class="cls-12" x="128.72" y="0">w</tspan><tspan x="157.76" y="0">ed:</tspan><tspan class="cls-13" x="208.64" y="0"> </tspan><tspan class="cls-14" x="213.8" y="0">“</tspan><tspan class="cls-6" x="229.56" y="0">T</tspan><tspan x="249.16" y="0">he </tspan><tspan class="cls-15" x="299.88" y="0">M</tspan><tspan x="332.51" y="0">issin</tspan><tspan class="cls-16" x="405.11" y="0">g</tspan><tspan class="cls-17" x="426.59" y="0">”</tspan></text><text class="cls-2" transform="translate(559.3 318.66)"><tspan class="cls-18">y</tspan><tspan x="18.44" y="0">es</tspan></text><text class="cls-2" transform="translate(0 808.73)"><tspan class="cls-15">R</tspan><tspan class="cls-19" x="22" y="0">a</tspan><tspan x="41.12" y="0">ting: 2</tspan></text><text class="cls-2" transform="translate(250 808.73)"><tspan class="cls-15">R</tspan><tspan class="cls-19" x="22" y="0">a</tspan><tspan x="41.12" y="0">ting: 4</tspan></text><text class="cls-2" transform="translate(301.3 650.66)"><tspan class="cls-18">y</tspan><tspan x="18.44" y="0">es</tspan></text><line class="cls-20" x1="89" y1="761.28" x2="180" y2="587.28"/><line class="cls-20" x1="336" y1="761.28" x2="245" y2="587.28"/><line class="cls-20" x1="288" y1="381.28" x2="379" y2="207.28"/><line class="cls-20" x1="559" y1="380.28" x2="468" y2="206.28"/><circle class="cls-1" cx="631.89" cy="525.78" r="58.03"/><text class="cls-2" transform="translate(456 808.73)"><tspan class="cls-15">R</tspan><tspan class="cls-19" x="22" y="0">a</tspan><tspan x="41.12" y="0">ting: 2</tspan></text><text class="cls-2" transform="translate(705 808.73)"><tspan class="cls-15">R</tspan><tspan class="cls-19" x="22" y="0">a</tspan><tspan x="41.12" y="0">ting: 5</tspan></text><text class="cls-2" transform="translate(720.3 650.66)"><tspan class="cls-18">y</tspan><tspan x="18.44" y="0">es</tspan></text><line class="cls-20" x1="508.01" y1="761.29" x2="599.01" y2="587.29"/><line class="cls-20" x1="755.01" y1="761.29" x2="664.01" y2="587.29"/></g></g></svg>